<svg width="40" height="53" viewBox="0 0 40 53" fill="none" xmlns="http://www.w3.org/2000/svg">
<path d="M20.2147 45.8867V46.5195H10.7459V45.8867H15.0702V43.2969H15.7967V45.8867H20.2147ZM11.1678 42.7344C12.7967 42.4414 15.0409 40.9531 15.0467 39.125V38.3047H15.8084V39.125C15.8084 40.9355 18.076 42.4414 19.7108 42.7344L19.3709 43.3555C17.8885 43.0273 16.0897 41.9375 15.4334 40.3789C14.7713 41.9375 12.9842 43.0273 11.5077 43.3555L11.1678 42.7344ZM29.3166 37.5781V43.0273H28.5783V41.2461H26.3869V40.6367H28.5783V39.3594H26.3869V38.75H28.5783V37.5781H29.3166ZM20.8205 42.4297C22.297 41.8965 23.4806 40.5078 23.4923 38.9961V37.8359H24.1955V38.9961C24.1896 40.4199 25.3791 41.709 26.8439 42.207L26.4338 42.793C25.2795 42.3594 24.2951 41.457 23.8498 40.3262C23.422 41.5625 22.4142 42.5527 21.2189 43.0273L20.8205 42.4297ZM22.672 44.1641V43.5547H29.3166V45.8867H23.422V47.1641H29.7384V47.7617H22.7072V45.3125H28.59V44.1641H22.672Z" fill="#0F473F"/>
<path d="M14.1667 9.91667H20M14.1667 14H23.5M17.2977 21H24.9C26.8602 21 27.8403 21 28.589 20.6185C29.2475 20.283 29.783 19.7475 30.1185 19.089C30.5 18.3403 30.5 17.3602 30.5 15.4V9.1C30.5 7.13982 30.5 6.15972 30.1185 5.41103C29.783 4.75247 29.2475 4.21703 28.589 3.88148C27.8403 3.5 26.8602 3.5 24.9 3.5H15.1C13.1398 3.5 12.1597 3.5 11.411 3.88148C10.7525 4.21703 10.217 4.75247 9.88148 5.41103C9.5 6.15972 9.5 7.13982 9.5 9.1V23.7248C9.5 24.3464 9.5 24.6572 9.62743 24.8169C9.73826 24.9557 9.90631 25.0365 10.084 25.0363C10.2882 25.0361 10.5309 24.8419 11.0164 24.4536L13.7994 22.2271C14.3679 21.7723 14.6522 21.5449 14.9687 21.3832C15.2496 21.2397 15.5485 21.1349 15.8574 21.0715C16.2056 21 16.5696 21 17.2977 21Z" stroke="#BBC2C1" stroke-width="2" stroke-linecap="round" stroke-linejoin="round"/>
</svg>
