<svg width="40" height="53" viewBox="0 0 40 53" fill="none" xmlns="http://www.w3.org/2000/svg">
<path d="M16.078 38.2695C16.0721 40.8242 14.1678 42.6816 11.203 43.5312L10.8866 42.9453C13.4237 42.2129 15.1053 40.7715 15.287 38.8906H11.4022V38.2695H16.078ZM12.5975 47.7617V43.9648H19.2655V47.7617H12.5975ZM13.3241 47.1406H18.5389V44.5625H13.3241V47.1406ZM16.0897 40.9414V40.3203H18.5272V37.5781H19.2655V43.5195H18.5272V40.9414H16.0897ZM23.8088 39.6641C23.8088 40.8535 24.6701 42.0605 25.9884 42.5703L25.59 43.1562C24.5705 42.7344 23.8205 41.9316 23.4572 40.9824C23.0822 42.0078 22.297 42.9336 21.2658 43.4023L20.8556 42.8281C22.1916 42.2305 23.0998 40.8477 23.1056 39.6641V38.2109H23.8088V39.6641ZM22.6252 45.043V44.4336H29.5392V47.9141H28.8244V45.043H22.6252ZM26.5861 43.7656V37.7773H27.2892V40.332H28.8361V37.5781H29.5392V43.8242H28.8361V40.9648H27.2892V43.7656H26.5861Z" fill="#0F473F"/>
<path d="M30.5 24.5L26.4168 20.4167M29.3333 13.4167C29.3333 18.8935 24.8935 23.3333 19.4167 23.3333C13.9398 23.3333 9.5 18.8935 9.5 13.4167C9.5 7.93984 13.9398 3.5 19.4167 3.5C24.8935 3.5 29.3333 7.93984 29.3333 13.4167Z" stroke="#BBC2C1" stroke-width="2" stroke-linecap="round" stroke-linejoin="round"/>
</svg>
