<svg width="40" height="61" viewBox="0 0 40 61" fill="none" xmlns="http://www.w3.org/2000/svg">
<path d="M16.078 46.2695C16.0721 48.8242 14.1678 50.6816 11.203 51.5312L10.8866 50.9453C13.4237 50.2129 15.1053 48.7715 15.287 46.8906H11.4022V46.2695H16.078ZM12.5975 55.7617V51.9648H19.2655V55.7617H12.5975ZM13.3241 55.1406H18.5389V52.5625H13.3241V55.1406ZM16.0897 48.9414V48.3203H18.5272V45.5781H19.2655V51.5195H18.5272V48.9414H16.0897ZM23.8088 47.6641C23.8088 48.8535 24.6701 50.0605 25.9884 50.5703L25.59 51.1562C24.5705 50.7344 23.8205 49.9316 23.4572 48.9824C23.0822 50.0078 22.297 50.9336 21.2658 51.4023L20.8556 50.8281C22.1916 50.2305 23.0998 48.8477 23.1056 47.6641V46.2109H23.8088V47.6641ZM22.6252 53.043V52.4336H29.5392V55.9141H28.8244V53.043H22.6252ZM26.5861 51.7656V45.7773H27.2892V48.332H28.8361V45.5781H29.5392V51.8242H28.8361V48.9648H27.2892V51.7656H26.5861Z" fill="#4CA771"/>
<path d="M30.5 32.5L26.4168 28.4167M29.3333 21.4167C29.3333 26.8935 24.8935 31.3333 19.4167 31.3333C13.9398 31.3333 9.5 26.8935 9.5 21.4167C9.5 15.9398 13.9398 11.5 19.4167 11.5C24.8935 11.5 29.3333 15.9398 29.3333 21.4167Z" stroke="#83D0A1" stroke-width="2" stroke-linecap="round" stroke-linejoin="round"/>
<rect x="17" width="6" height="6" rx="3" fill="#83D0A1"/>
</svg>
