<svg width="40" height="61" viewBox="0 0 40 61" fill="none" xmlns="http://www.w3.org/2000/svg">
<path d="M15.1891 53.8984V54.543H5.72039V53.8984H15.1891ZM6.58758 47.2891V46.668H14.2399V47.2891H12.5407V51.0625H14.2282V51.6719H6.5993V51.0625H8.2868V47.2891H6.58758ZM9.02508 51.0625H11.8141V47.2891H9.02508V51.0625ZM25.2402 53.957V54.5898H15.7715V53.957H20.1074V51.8711H16.9902V48.7773H23.2832V46.9961H16.9551V46.375H24.0098V49.3984H17.7168V51.25H24.2559V51.8711H20.8457V53.957H25.2402ZM34.3304 45.5781V50.9688H33.5921V45.5781H34.3304ZM25.9984 49.9023C26.4378 49.9023 26.9124 49.9023 27.4046 49.8906V46.9141H26.2913V46.3047H31.8812V46.9141H30.7679V49.7559C31.3421 49.7148 31.9046 49.6621 32.432 49.5977L32.4671 50.1602C30.3929 50.4531 27.932 50.541 26.0921 50.5352L25.9984 49.9023ZM27.639 52.0938V51.4961H34.3304V53.8516H28.4007V55.1641H34.7523V55.7852H27.6741V53.2891H33.5921V52.0938H27.639ZM28.1195 49.8789C28.7523 49.8613 29.4027 49.8379 30.053 49.8027V46.9141H28.1195V49.8789Z" fill="#4CA771"/>
<path d="M11 29.6923C11 27.6531 12.6531 26 14.6923 26H25.3077C27.3469 26 29 27.6531 29 29.6923V29.6923C29 30.9668 27.9668 32 26.6923 32H13.3077C12.0332 32 11 30.9668 11 29.6923V29.6923Z" stroke="#83D0A1" stroke-width="2"/>
<circle cx="20" cy="17" r="5" stroke="#83D0A1" stroke-width="2"/>
<rect x="17" width="6" height="6" rx="3" fill="#83D0A1"/>
</svg>
