<svg width="40" height="53" viewBox="0 0 40 53" fill="none" xmlns="http://www.w3.org/2000/svg">
<path d="M24.0215 44.832V47.7617H16.9434V44.832H24.0215ZM15.7715 43.9531V43.3438H20.1191V42.459C18.2266 42.4062 17.1543 41.9141 17.1543 41C17.1543 40.0449 18.3613 39.5527 20.4707 39.5469C22.5918 39.5527 23.7871 40.0449 23.7871 41C23.7871 41.9082 22.7324 42.4004 20.8457 42.459V43.3438H25.1934V43.9531H15.7715ZM16.2754 39.0781V38.4805H20.1191V37.3906H20.8457V38.4805H24.6309V39.0781H16.2754ZM17.6699 47.1758H23.3066V45.418H17.6699V47.1758ZM17.9395 41C17.9395 41.5859 18.8887 41.9258 20.4707 41.9258C22.0586 41.9258 23.0078 41.5859 23.0137 41C23.0078 40.4141 22.0586 40.0859 20.4707 40.0742C18.8887 40.0859 17.9395 40.4141 17.9395 41Z" fill="#0F473F"/>
<path d="M15.8252 3.5C17.3039 3.5 18.5 4.69999 18.5 6.17478V11.042C18.5 11.8465 17.8465 12.5 17.042 12.5H12.1748C10.7 12.5 9.5 11.3039 9.5 9.82522C9.5 6.33768 12.3377 3.5 15.8252 3.5Z" stroke="#BBC2C1" stroke-width="2"/>
<path d="M24.1748 3.5C22.6961 3.5 21.5 4.69999 21.5 6.17478V11.042C21.5 11.8465 22.1535 12.5 22.958 12.5H27.8252C29.3 12.5 30.5 11.3039 30.5 9.82522C30.5 6.33768 27.6623 3.5 24.1748 3.5Z" stroke="#BBC2C1" stroke-width="2"/>
<path d="M15.8252 24.5C17.3039 24.5 18.5 23.3 18.5 21.8252V16.958C18.5 16.1535 17.8465 15.5 17.042 15.5H12.1748C10.7 15.5 9.5 16.6961 9.5 18.1748C9.5 21.6623 12.3377 24.5 15.8252 24.5Z" stroke="#BBC2C1" stroke-width="2"/>
<path d="M24.1748 24.5C22.6961 24.5 21.5 23.3 21.5 21.8252V16.958C21.5 16.1535 22.1535 15.5 22.958 15.5H27.8252C29.3 15.5 30.5 16.6961 30.5 18.1748C30.5 21.6623 27.6623 24.5 24.1748 24.5Z" stroke="#BBC2C1" stroke-width="2"/>
</svg>
