<svg width="40" height="61" viewBox="0 0 40 61" fill="none" xmlns="http://www.w3.org/2000/svg">
<path d="M13.785 48.4961C13.7909 50.3359 15.1268 52.2168 16.5623 52.8906L16.117 53.5C14.9452 52.8906 13.8846 51.5898 13.4276 50.0781C12.9764 51.666 11.9217 53.0547 10.7616 53.6875L10.2811 53.1016C11.7166 52.3691 13.0409 50.3828 13.0467 48.4961V46.5039H13.785V48.4961ZM15.4373 49.8086V49.1875H18.0389V45.5781H18.7655V55.9258H18.0389V49.8086H15.4373ZM29.133 45.5781V55.9141H28.4181V50.4648H26.8361V55.375H26.133V45.8125H26.8361V49.8203H28.4181V45.5781H29.133ZM20.215 53.1602C21.6857 52.3574 22.5705 50.6172 22.5705 48.4844V47.4883H20.4377V46.8555H25.3127V47.4883H23.2853V48.4844C23.2795 50.4004 24.1408 52.0586 25.5822 52.7852L25.1369 53.3711C24.0646 52.7852 23.3088 51.7305 22.9455 50.4004C22.588 51.9062 21.8088 53.0723 20.6955 53.7227L20.215 53.1602Z" fill="#4CA771"/>
<path d="M20.0002 32.5L19.8834 32.3249C19.073 31.1093 18.6678 30.5015 18.1324 30.0615C17.6585 29.6719 17.1124 29.3796 16.5254 29.2014C15.8623 29 15.1318 29 13.6708 29H12.0668C10.76 29 10.1066 29 9.60752 28.7457C9.16847 28.522 8.81152 28.165 8.58781 27.726C8.3335 27.2268 8.3335 26.5735 8.3335 25.2667V15.2333C8.3335 13.9265 8.3335 13.2731 8.58781 12.774C8.81152 12.335 9.16847 11.978 9.60752 11.7543C10.1066 11.5 10.76 11.5 12.0668 11.5H12.5335C15.1471 11.5 16.4539 11.5 17.4521 12.0086C18.3302 12.456 19.0441 13.17 19.4915 14.048C20.0002 15.0463 20.0002 16.3531 20.0002 18.9667M20.0002 32.5V18.9667M20.0002 32.5L20.1169 32.3249C20.9273 31.1093 21.3325 30.5015 21.8679 30.0615C22.3418 29.6719 22.8879 29.3796 23.475 29.2014C24.138 29 24.8685 29 26.3295 29H27.9335C29.2403 29 29.8937 29 30.3928 28.7457C30.8319 28.522 31.1888 28.165 31.4125 27.726C31.6668 27.2268 31.6668 26.5735 31.6668 25.2667V15.2333C31.6668 13.9265 31.6668 13.2731 31.4125 12.774C31.1888 12.335 30.8319 11.978 30.3928 11.7543C29.8937 11.5 29.2403 11.5 27.9335 11.5H27.4668C24.8533 11.5 23.5465 11.5 22.5482 12.0086C21.6701 12.456 20.9562 13.17 20.5088 14.048C20.0002 15.0463 20.0002 16.3531 20.0002 18.9667" stroke="#83D0A1" stroke-width="2" stroke-linecap="round" stroke-linejoin="round"/>
<rect x="17" width="6" height="6" rx="3" fill="#83D0A1"/>
</svg>
