<svg width="40" height="53" viewBox="0 0 40 53" fill="none" xmlns="http://www.w3.org/2000/svg">
<path d="M15.1891 45.8984V46.543H5.72039V45.8984H15.1891ZM6.58758 39.2891V38.668H14.2399V39.2891H12.5407V43.0625H14.2282V43.6719H6.5993V43.0625H8.2868V39.2891H6.58758ZM9.02508 43.0625H11.8141V39.2891H9.02508V43.0625ZM25.2402 45.957V46.5898H15.7715V45.957H20.1074V43.8711H16.9902V40.7773H23.2832V38.9961H16.9551V38.375H24.0098V41.3984H17.7168V43.25H24.2559V43.8711H20.8457V45.957H25.2402ZM34.3304 37.5781V42.9688H33.5921V37.5781H34.3304ZM25.9984 41.9023C26.4378 41.9023 26.9124 41.9023 27.4046 41.8906V38.9141H26.2913V38.3047H31.8812V38.9141H30.7679V41.7559C31.3421 41.7148 31.9046 41.6621 32.432 41.5977L32.4671 42.1602C30.3929 42.4531 27.932 42.541 26.0921 42.5352L25.9984 41.9023ZM27.639 44.0938V43.4961H34.3304V45.8516H28.4007V47.1641H34.7523V47.7852H27.6741V45.2891H33.5921V44.0938H27.639ZM28.1195 41.8789C28.7523 41.8613 29.4027 41.8379 30.053 41.8027V38.9141H28.1195V41.8789Z" fill="#0F473F"/>
<path d="M11 21.6923C11 19.6531 12.6531 18 14.6923 18H25.3077C27.3469 18 29 19.6531 29 21.6923V21.6923C29 22.9668 27.9668 24 26.6923 24H13.3077C12.0332 24 11 22.9668 11 21.6923V21.6923Z" stroke="#BBC2C1" stroke-width="2"/>
<circle cx="20" cy="9" r="5" stroke="#BBC2C1" stroke-width="2"/>
</svg>
