<svg width="40" height="61" viewBox="0 0 40 61" fill="none" xmlns="http://www.w3.org/2000/svg">
<path d="M24.0215 52.832V55.7617H16.9434V52.832H24.0215ZM15.7715 51.9531V51.3438H20.1191V50.459C18.2266 50.4062 17.1543 49.9141 17.1543 49C17.1543 48.0449 18.3613 47.5527 20.4707 47.5469C22.5918 47.5527 23.7871 48.0449 23.7871 49C23.7871 49.9082 22.7324 50.4004 20.8457 50.459V51.3438H25.1934V51.9531H15.7715ZM16.2754 47.0781V46.4805H20.1191V45.3906H20.8457V46.4805H24.6309V47.0781H16.2754ZM17.6699 55.1758H23.3066V53.418H17.6699V55.1758ZM17.9395 49C17.9395 49.5859 18.8887 49.9258 20.4707 49.9258C22.0586 49.9258 23.0078 49.5859 23.0137 49C23.0078 48.4141 22.0586 48.0859 20.4707 48.0742C18.8887 48.0859 17.9395 48.4141 17.9395 49Z" fill="#4CA771"/>
<path d="M15.8252 11.5C17.3039 11.5 18.5 12.7 18.5 14.1748V19.042C18.5 19.8465 17.8465 20.5 17.042 20.5H12.1748C10.7 20.5 9.5 19.3039 9.5 17.8252C9.5 14.3377 12.3377 11.5 15.8252 11.5Z" stroke="#83D0A1" stroke-width="2"/>
<path d="M24.1748 11.5C22.6961 11.5 21.5 12.7 21.5 14.1748V19.042C21.5 19.8465 22.1535 20.5 22.958 20.5H27.8252C29.3 20.5 30.5 19.3039 30.5 17.8252C30.5 14.3377 27.6623 11.5 24.1748 11.5Z" stroke="#83D0A1" stroke-width="2"/>
<path d="M15.8252 32.5C17.3039 32.5 18.5 31.3 18.5 29.8252V24.958C18.5 24.1535 17.8465 23.5 17.042 23.5H12.1748C10.7 23.5 9.5 24.6961 9.5 26.1748C9.5 29.6623 12.3377 32.5 15.8252 32.5Z" stroke="#83D0A1" stroke-width="2"/>
<path d="M24.1748 32.5C22.6961 32.5 21.5 31.3 21.5 29.8252V24.958C21.5 24.1535 22.1535 23.5 22.958 23.5H27.8252C29.3 23.5 30.5 24.6961 30.5 26.1748C30.5 29.6623 27.6623 32.5 24.1748 32.5Z" stroke="#83D0A1" stroke-width="2"/>
<rect x="17" width="6" height="6" rx="3" fill="#83D0A1"/>
</svg>
