<svg width="40" height="53" viewBox="0 0 40 53" fill="none" xmlns="http://www.w3.org/2000/svg">
<path d="M13.785 40.4961C13.7909 42.3359 15.1268 44.2168 16.5623 44.8906L16.117 45.5C14.9452 44.8906 13.8846 43.5898 13.4276 42.0781C12.9764 43.666 11.9217 45.0547 10.7616 45.6875L10.2811 45.1016C11.7166 44.3691 13.0409 42.3828 13.0467 40.4961V38.5039H13.785V40.4961ZM15.4373 41.8086V41.1875H18.0389V37.5781H18.7655V47.9258H18.0389V41.8086H15.4373ZM29.133 37.5781V47.9141H28.4181V42.4648H26.8361V47.375H26.133V37.8125H26.8361V41.8203H28.4181V37.5781H29.133ZM20.215 45.1602C21.6857 44.3574 22.5705 42.6172 22.5705 40.4844V39.4883H20.4377V38.8555H25.3127V39.4883H23.2853V40.4844C23.2795 42.4004 24.1408 44.0586 25.5822 44.7852L25.1369 45.3711C24.0646 44.7852 23.3088 43.7305 22.9455 42.4004C22.588 43.9062 21.8088 45.0723 20.6955 45.7227L20.215 45.1602Z" fill="#0F473F"/>
<path d="M20.0002 24.5L19.8834 24.3249C19.073 23.1093 18.6678 22.5015 18.1324 22.0615C17.6585 21.6719 17.1124 21.3796 16.5254 21.2014C15.8623 21 15.1318 21 13.6708 21H12.0668C10.76 21 10.1066 21 9.60752 20.7457C9.16847 20.522 8.81152 20.165 8.58781 19.726C8.3335 19.2268 8.3335 18.5735 8.3335 17.2667V7.23333C8.3335 5.92654 8.3335 5.27315 8.58781 4.77402C8.81152 4.33498 9.16847 3.97802 9.60752 3.75432C10.1066 3.5 10.76 3.5 12.0668 3.5H12.5335C15.1471 3.5 16.4539 3.5 17.4521 4.00864C18.3302 4.45605 19.0441 5.16995 19.4915 6.04804C20.0002 7.0463 20.0002 8.35309 20.0002 10.9667M20.0002 24.5V10.9667M20.0002 24.5L20.1169 24.3249C20.9273 23.1093 21.3325 22.5015 21.8679 22.0615C22.3418 21.6719 22.8879 21.3796 23.475 21.2014C24.138 21 24.8685 21 26.3295 21H27.9335C29.2403 21 29.8937 21 30.3928 20.7457C30.8319 20.522 31.1888 20.165 31.4125 19.726C31.6668 19.2268 31.6668 18.5735 31.6668 17.2667V7.23333C31.6668 5.92654 31.6668 5.27315 31.4125 4.77402C31.1888 4.33498 30.8319 3.97802 30.3928 3.75432C29.8937 3.5 29.2403 3.5 27.9335 3.5H27.4668C24.8533 3.5 23.5465 3.5 22.5482 4.00864C21.6701 4.45605 20.9562 5.16995 20.5088 6.04804C20.0002 7.0463 20.0002 8.35309 20.0002 10.9667" stroke="#BBC2C1" stroke-width="2" stroke-linecap="round" stroke-linejoin="round"/>
</svg>
