<svg width="40" height="61" viewBox="0 0 40 61" fill="none" xmlns="http://www.w3.org/2000/svg">
<path d="M20.2147 53.8867V54.5195H10.7459V53.8867H15.0702V51.2969H15.7967V53.8867H20.2147ZM11.1678 50.7344C12.7967 50.4414 15.0409 48.9531 15.0467 47.125V46.3047H15.8084V47.125C15.8084 48.9355 18.076 50.4414 19.7108 50.7344L19.3709 51.3555C17.8885 51.0273 16.0897 49.9375 15.4334 48.3789C14.7713 49.9375 12.9842 51.0273 11.5077 51.3555L11.1678 50.7344ZM29.3166 45.5781V51.0273H28.5783V49.2461H26.3869V48.6367H28.5783V47.3594H26.3869V46.75H28.5783V45.5781H29.3166ZM20.8205 50.4297C22.297 49.8965 23.4806 48.5078 23.4923 46.9961V45.8359H24.1955V46.9961C24.1896 48.4199 25.3791 49.709 26.8439 50.207L26.4338 50.793C25.2795 50.3594 24.2951 49.457 23.8498 48.3262C23.422 49.5625 22.4142 50.5527 21.2189 51.0273L20.8205 50.4297ZM22.672 52.1641V51.5547H29.3166V53.8867H23.422V55.1641H29.7384V55.7617H22.7072V53.3125H28.59V52.1641H22.672Z" fill="#4CA771"/>
<path d="M14.1667 17.9167H20M14.1667 22H23.5M17.2977 29H24.9C26.8602 29 27.8403 29 28.589 28.6185C29.2475 28.283 29.783 27.7475 30.1185 27.089C30.5 26.3403 30.5 25.3602 30.5 23.4V17.1C30.5 15.1398 30.5 14.1597 30.1185 13.411C29.783 12.7525 29.2475 12.217 28.589 11.8815C27.8403 11.5 26.8602 11.5 24.9 11.5H15.1C13.1398 11.5 12.1597 11.5 11.411 11.8815C10.7525 12.217 10.217 12.7525 9.88148 13.411C9.5 14.1597 9.5 15.1398 9.5 17.1V31.7248C9.5 32.3464 9.5 32.6572 9.62743 32.8169C9.73826 32.9557 9.90631 33.0365 10.084 33.0363C10.2882 33.0361 10.5309 32.8419 11.0164 32.4536L13.7994 30.2271C14.3679 29.7723 14.6522 29.5449 14.9687 29.3832C15.2496 29.2397 15.5485 29.1349 15.8574 29.0715C16.2056 29 16.5696 29 17.2977 29Z" stroke="#83D0A1" stroke-width="2" stroke-linecap="round" stroke-linejoin="round"/>
<rect x="17" width="6" height="6" rx="3" fill="#83D0A1"/>
</svg>
