<svg xmlns="http://www.w3.org/2000/svg" width="121" height="101" viewBox="0 0 121 101" fill="none">
  <g clip-path="url(#clip0_2301_1636)">
    <path opacity="0.45" d="M74.16 100.06L107.62 77.5999C107.62 77.5999 115.88 71.99 108.06 61.75L47.5 23.45L0 51.83L74.16 100.07V100.06Z" fill="#83D0A1"/>
    <path opacity="0.45" d="M69.3899 65.67L102.85 43.21C102.85 43.21 111.11 37.6 103.29 27.36L58.7299 0L11.2299 28.38L4.8999 32.36L20.7999 34.6L69.3999 65.67H69.3899Z" fill="#83D0A1"/>
    <path d="M113.43 56.8C117.169 56.8 120.2 53.769 120.2 50.03C120.2 46.291 117.169 43.26 113.43 43.26C109.691 43.26 106.66 46.291 106.66 50.03C106.66 53.769 109.691 56.8 113.43 56.8Z" fill="#83D0A1"/>
  </g>
  <defs>
    <clipPath id="clip0_2301_1636">
      <rect width="120.2" height="100.06" fill="white"/>
    </clipPath>
  </defs>
</svg>