<svg xmlns="http://www.w3.org/2000/svg" width="24" height="24" viewBox="0 0 24 24" fill="none">
  <path d="M7.58824 0C9.69328 0 11.395 1.70798 11.395 3.80672V8.84874C11.395 10.2542 10.2542 11.395 8.84874 11.395H3.80672C1.70798 11.395 0 9.69327 0 7.58823C0 3.40336 3.40336 0 7.58824 0Z" fill="#83D0A1"/>
  <path d="M16.4118 0C14.3067 0 12.605 1.70798 12.605 3.80672V8.84874C12.605 10.2542 13.7458 11.395 15.1513 11.395H20.1933C22.292 11.395 24 9.69327 24 7.58823C24 3.40336 20.5966 0 16.4118 0Z" fill="#83D0A1"/>
  <path d="M7.58824 24C9.69328 24 11.395 22.292 11.395 20.1933V15.1513C11.395 13.7458 10.2542 12.605 8.84874 12.605H3.80672C1.70798 12.605 0 14.3067 0 16.4118C0 20.5966 3.40336 24 7.58824 24Z" fill="#83D0A1"/>
  <path d="M16.4118 24C14.3067 24 12.605 22.292 12.605 20.1933V15.1513C12.605 13.7458 13.7458 12.605 15.1513 12.605H20.1933C22.292 12.605 24 14.3067 24 16.4118C24 20.5966 20.5966 24 16.4118 24Z" fill="#E9F6EE"/>
  <path d="M16.4118 24C14.3067 24 12.605 22.292 12.605 20.1933V15.1513C12.605 13.7458 13.7458 12.605 15.1513 12.605H20.1933C22.292 12.605 24 14.3067 24 16.4118C24 20.5966 20.5966 24 16.4118 24Z" fill="black" fill-opacity="0.1"/>
</svg>