<svg xmlns="http://www.w3.org/2000/svg" width="17" height="14" viewBox="0 0 17 14" fill="none">
  <path d="M9.16771 3.66667L8.42069 2.17928C8.2057 1.7512 8.09819 1.53715 7.93781 1.38078C7.79599 1.24249 7.62506 1.13732 7.43739 1.07287C7.22517 1 6.9848 1 6.50405 1H3.94446C3.19438 1 2.81934 1 2.53285 1.14532C2.28085 1.27316 2.07596 1.47713 1.94756 1.72801C1.80158 2.01323 1.80158 2.3866 1.80158 3.13333V3.66667M1.80158 3.66667H11.9802C13.1053 3.66667 13.6679 3.66667 14.0976 3.88465C14.4756 4.0764 14.783 4.38236 14.9756 4.75869C15.1945 5.18651 15.1945 5.74656 15.1945 6.86667V9.8C15.1945 10.9201 15.1945 11.4802 14.9756 11.908C14.783 12.2843 14.4756 12.5903 14.0976 12.782C13.6679 13 13.1053 13 11.9802 13H5.01589C3.89078 13 3.32822 13 2.89848 12.782C2.52048 12.5903 2.21315 12.2843 2.02054 11.908C1.80158 11.4802 1.80158 10.9201 1.80158 9.8V3.66667Z" stroke="#4CA771" stroke-linecap="round" stroke-linejoin="round"/>
</svg>