<svg xmlns="http://www.w3.org/2000/svg" width="88" height="88" viewBox="0 0 88 88" fill="none">
  <rect width="88" height="88" rx="12" fill="#83D0A1"/>
  <path d="M31.8677 9C37.6565 9 42.3361 13.9838 42.3361 20.1078V34.8201C42.3361 38.9211 39.1991 42.2498 35.334 42.2498H21.4685C15.697 42.2498 11 37.2844 11 31.142C11 18.9308 20.3592 9 31.8677 9Z" fill="white"/>
  <path d="M56.1323 9C50.3435 9 45.6639 13.9838 45.6639 20.1078V34.8201C45.6639 38.9211 48.8009 42.2498 52.666 42.2498H66.5315C72.303 42.2498 77 37.2844 77 31.142C77 18.9308 67.6408 9 56.1323 9Z" fill="white"/>
  <path d="M31.8677 79.0305C37.6565 79.0305 42.3361 74.0467 42.3361 67.9227V53.2104C42.3361 49.1094 39.1991 45.7807 35.334 45.7807H21.4685C15.697 45.7807 11 50.7461 11 56.8885C11 69.0997 20.3592 79.0305 31.8677 79.0305Z" fill="#D2EDE6"/>
  <path d="M56.1323 79.0305C50.3435 79.0305 45.6639 74.0467 45.6639 67.9227V53.2104C45.6639 49.1094 48.8009 45.7807 52.666 45.7807H66.5315C72.303 45.7807 77 50.7461 77 56.8885C77 69.0997 67.6408 79.0305 56.1323 79.0305Z" fill="#D2EDE6"/>
</svg>