<svg xmlns="http://www.w3.org/2000/svg" width="17" height="14" viewBox="0 0 17 14" fill="none">
  <path d="M13.9213 5.8H3.07296M10.9078 1V3.4M6.08638 1V3.4M5.96584 13H11.0284C12.041 13 12.5473 13 12.934 12.8038C13.2743 12.6312 13.5509 12.3559 13.7242 12.0172C13.9213 11.6321 13.9213 11.1281 13.9213 10.12V5.08C13.9213 4.07191 13.9213 3.56786 13.7242 3.18282C13.5509 2.84413 13.2743 2.56876 12.934 2.39619C12.5473 2.2 12.041 2.2 11.0284 2.2H5.96584C4.95324 2.2 4.44694 2.2 4.06018 2.39619C3.71997 2.56876 3.44337 2.84413 3.27003 3.18282C3.07296 3.56786 3.07296 4.07191 3.07296 5.08V10.12C3.07296 11.1281 3.07296 11.6321 3.27003 12.0172C3.44337 12.3559 3.71997 12.6312 4.06018 12.8038C4.44694 13 4.95324 13 5.96584 13Z" stroke="#4CA771" stroke-linecap="round" stroke-linejoin="round"/>
</svg>