<svg xmlns="http://www.w3.org/2000/svg" width="17" height="14" viewBox="0 0 17 14" fill="none">
  <path d="M6.13209 4.64421H6.13819M4.03507 1.56926L3.04339 2.55653C2.83236 2.76662 2.72684 2.87167 2.65138 2.99425C2.58448 3.10294 2.53518 3.22143 2.50529 3.34538C2.47158 3.48518 2.47158 3.63373 2.47158 3.93085L2.47158 5.66126C2.47158 5.95837 2.47158 6.10693 2.50529 6.24673C2.53518 6.37068 2.58448 6.48917 2.65138 6.59786C2.72684 6.72044 2.83236 6.82549 3.04339 7.03558L7.7219 11.6933C8.44671 12.4148 8.80912 12.7756 9.22702 12.9108C9.59461 13.0297 9.99058 13.0297 10.3582 12.9108C10.7761 12.7756 11.1385 12.4148 11.8633 11.6933L13.2127 10.3499C13.9375 9.62832 14.2999 9.26752 14.4357 8.85149C14.5551 8.48553 14.5551 8.09132 14.4357 7.72536C14.2999 7.30932 13.9375 6.94853 13.2127 6.22695L8.53415 1.56926C8.32312 1.35917 8.2176 1.25413 8.09447 1.179C7.9853 1.1124 7.86628 1.06332 7.74178 1.03356C7.60135 1 7.45213 1 7.15369 1L5.41554 1C5.11709 1 4.96787 1 4.82745 1.03356C4.70294 1.06332 4.58392 1.1124 4.47475 1.179C4.35162 1.25412 4.2461 1.35917 4.03507 1.56926ZM6.43713 4.64421C6.43713 4.81193 6.30056 4.9479 6.13209 4.9479C5.96362 4.9479 5.82705 4.81193 5.82705 4.64421C5.82705 4.47649 5.96362 4.34053 6.13209 4.34053C6.30056 4.34053 6.43713 4.47649 6.43713 4.64421Z" stroke="#4CA771" stroke-linecap="round" stroke-linejoin="round"/>
</svg>