<svg xmlns="http://www.w3.org/2000/svg" width="17" height="14" viewBox="0 0 17 14" fill="none">
  <path d="M8.52644 13L8.45943 12.8999C7.99427 12.2053 7.76169 11.858 7.4544 11.6065C7.18236 11.3839 6.8689 11.2169 6.53196 11.1151C6.15136 11 5.73207 11 4.89348 11H3.97283C3.22275 11 2.84772 11 2.56122 10.8547C2.30922 10.7268 2.10433 10.5229 1.97593 10.272C1.82996 9.98677 1.82996 9.6134 1.82996 8.86667V3.13333C1.82996 2.3866 1.82996 2.01323 1.97593 1.72801C2.10433 1.47713 2.30922 1.27316 2.56122 1.14532C2.84772 1 3.22275 1 3.97283 1H4.24069C5.74084 1 6.49092 1 7.0639 1.29065C7.56791 1.54631 7.97768 1.95426 8.23449 2.45603C8.52644 3.02646 8.52644 3.77319 8.52644 5.26667M8.52644 13V5.26667M8.52644 13L8.59344 12.8999C9.0586 12.2053 9.29119 11.858 9.59847 11.6065C9.87051 11.3839 10.184 11.2169 10.5209 11.1151C10.9015 11 11.3208 11 12.1594 11H13.08C13.8301 11 14.2052 11 14.4916 10.8547C14.7437 10.7268 14.9485 10.5229 15.0769 10.272C15.2229 9.98677 15.2229 9.6134 15.2229 8.86667V3.13333C15.2229 2.3866 15.2229 2.01323 15.0769 1.72801C14.9485 1.47713 14.7437 1.27316 14.4916 1.14532C14.2052 1 13.8301 1 13.08 1H12.8122C11.312 1 10.562 1 9.98897 1.29065C9.48496 1.54631 9.07519 1.95426 8.81839 2.45603C8.52644 3.02646 8.52644 3.77319 8.52644 5.26667" stroke="#4CA771" stroke-linecap="round" stroke-linejoin="round"/>
</svg>