<svg xmlns="http://www.w3.org/2000/svg" width="17" height="14" viewBox="0 0 17 14" fill="none">
  <path d="M11.1759 4.33333C11.1759 5.04058 10.8937 5.71885 10.3913 6.21895C9.88899 6.71905 9.20768 7 8.49727 7C7.78687 7 7.10556 6.71905 6.60322 6.21895C6.10089 5.71885 5.81868 5.04058 5.81868 4.33333M2.89447 3.93426L2.42572 9.53425C2.32502 10.7373 2.27467 11.3388 2.47893 11.8028C2.6584 12.2105 2.96935 12.5469 3.36254 12.7588C3.81005 13 4.41634 13 5.62893 13H11.3656C12.5782 13 13.1845 13 13.632 12.7588C14.0252 12.5469 14.3361 12.2105 14.5156 11.8028C14.7199 11.3388 14.6695 10.7373 14.5688 9.53425L14.1001 3.93426C14.0134 2.89917 13.9701 2.38162 13.7399 1.9899C13.5371 1.64496 13.2352 1.3684 12.8731 1.1959C12.4618 1 11.9402 1 10.8969 1L6.09768 1C5.05436 1 4.5327 1 4.12147 1.1959C3.75934 1.3684 3.45743 1.64496 3.25468 1.9899C3.02444 2.38162 2.98112 2.89917 2.89447 3.93426Z" stroke="#4CA771" stroke-linecap="round" stroke-linejoin="round"/>
</svg>