<svg xmlns="http://www.w3.org/2000/svg" width="17" height="14" viewBox="0 0 17 14" fill="none">
  <path d="M5.48305 3.66667H7.32458M5.48305 6.33333H7.32458M5.48305 9H7.32458M9.66835 3.66667H11.5099M9.66835 6.33333H11.5099M9.66835 9H11.5099M13.8537 13V3.13333C13.8537 2.3866 13.8537 2.01323 13.7077 1.72801C13.5793 1.47713 13.3744 1.27316 13.1224 1.14532C12.8359 1 12.4609 1 11.7108 1H5.28216C4.53208 1 4.15704 1 3.87055 1.14532C3.61855 1.27316 3.41366 1.47713 3.28526 1.72801C3.13928 2.01323 3.13928 2.3866 3.13928 3.13333V13M15.1929 13H1.79999" stroke="#4CA771" stroke-linecap="round" stroke-linejoin="round"/>
</svg>