<svg xmlns="http://www.w3.org/2000/svg" width="120" height="100" viewBox="0 0 120 100" fill="none">
  <path opacity="0.45" d="M74.0366 99.8935L107.441 77.4709C107.441 77.4709 115.687 71.8702 107.88 61.6473L47.421 23.411L0 51.7438L74.0366 99.9035V99.8935Z" fill="#E9F6EE"/>
  <path opacity="0.45" d="M69.2745 65.5607L102.679 43.1381C102.679 43.1381 110.925 37.5374 103.118 27.3145L58.6323 0L11.2113 28.3328L4.89185 32.3062L20.7654 34.5424L69.2845 65.5607H69.2745Z" fill="#E9F6EE"/>
  <path d="M113.241 56.7055C116.974 56.7055 120 53.6795 120 49.9468C120 46.214 116.974 43.188 113.241 43.188C109.509 43.188 106.483 46.214 106.483 49.9468C106.483 53.6795 109.509 56.7055 113.241 56.7055Z" fill="#E9F6EE"/>
</svg>