<svg xmlns="http://www.w3.org/2000/svg" width="102" height="84" viewBox="0 0 102 84" fill="none">
  <g clip-path="url(#clip0_2411_1997)">
    <path opacity="0.45" d="M62.9311 83.9998L91.3248 65.1448C91.3248 65.1448 98.3341 60.4352 91.6982 51.8387L40.3078 19.686L0 43.5109L62.9311 84.0082V83.9998Z" fill="#83D0A1"/>
    <path opacity="0.45" d="M58.8835 55.1297L87.2772 36.2746C87.2772 36.2746 94.2865 31.5651 87.6506 22.9686L49.8376 0L9.52975 23.8249L4.1582 27.1661L17.6507 29.0466L58.892 55.1297H58.8835Z" fill="#83D0A1"/>
    <path d="M96.2547 47.6832C99.4275 47.6832 102 45.1386 102 41.9998C102 38.8609 99.4275 36.3164 96.2547 36.3164C93.0819 36.3164 90.5098 38.8609 90.5098 41.9998C90.5098 45.1386 93.0819 47.6832 96.2547 47.6832Z" fill="#83D0A1"/>
  </g>
  <defs>
    <clipPath id="clip0_2411_1997">
      <rect width="102" height="84" fill="white"/>
    </clipPath>
  </defs>
</svg>