<svg xmlns="http://www.w3.org/2000/svg" width="16" height="16" viewBox="0 0 16 16" fill="none">
  <path d="M5.05883 0C6.46219 0 7.59664 1.13865 7.59664 2.53781V5.89916C7.59664 6.83613 6.83614 7.59663 5.89916 7.59663H2.53782C1.13866 7.59663 0 6.46218 0 5.05882C0 2.26891 2.26891 0 5.05883 0Z" fill="#83D0A1"/>
  <path d="M10.9412 0C9.53781 0 8.40336 1.13865 8.40336 2.53781V5.89916C8.40336 6.83613 9.16386 7.59663 10.1008 7.59663H13.4622C14.8613 7.59663 16 6.46218 16 5.05882C16 2.26891 13.7311 0 10.9412 0Z" fill="#83D0A1"/>
  <path d="M5.05883 16C6.46219 16 7.59664 14.8613 7.59664 13.4622V10.1008C7.59664 9.16387 6.83614 8.40337 5.89916 8.40337H2.53782C1.13866 8.40337 0 9.53782 0 10.9412C0 13.7311 2.26891 16 5.05883 16Z" fill="#83D0A1"/>
  <path d="M10.9412 16C9.53781 16 8.40336 14.8613 8.40336 13.4622V10.1008C8.40336 9.16387 9.16386 8.40337 10.1008 8.40337H13.4622C14.8613 8.40337 16 9.53782 16 10.9412C16 13.7311 13.7311 16 10.9412 16Z" fill="#83D0A1"/>
</svg>