<svg xmlns="http://www.w3.org/2000/svg" width="55" height="55" viewBox="0 0 55 55" fill="none">
  <path d="M25.8562 7.91372C26.3844 6.84365 26.6485 6.30861 27.0071 6.13767C27.319 5.98894 27.6814 5.98894 27.9933 6.13767C28.3519 6.30861 28.616 6.84365 29.1442 7.91372L34.1553 18.0657C34.3112 18.3816 34.3892 18.5396 34.5031 18.6622C34.604 18.7708 34.725 18.8588 34.8594 18.9213C35.0112 18.9919 35.1855 19.0174 35.5341 19.0683L46.7433 20.7067C47.9236 20.8792 48.5138 20.9655 48.787 21.2538C49.0246 21.5046 49.1364 21.8493 49.0911 22.1919C49.0391 22.5856 48.6118 23.0017 47.7573 23.8341L39.6493 31.7312C39.3966 31.9774 39.2702 32.1005 39.1886 32.247C39.1164 32.3766 39.0701 32.5191 39.0523 32.6664C39.0321 32.8329 39.0619 33.0067 39.1215 33.3545L41.0347 44.5089C41.2364 45.6854 41.3373 46.2736 41.1477 46.6227C40.9828 46.9264 40.6895 47.1394 40.3497 47.2024C39.9591 47.2748 39.4309 46.997 38.3744 46.4414L28.3535 41.1716C28.0413 41.0074 27.8852 40.9253 27.7207 40.893C27.5751 40.8645 27.4253 40.8645 27.2797 40.893C27.1152 40.9253 26.9591 41.0074 26.6469 41.1716L16.626 46.4414C15.5696 46.997 15.0413 47.2748 14.6507 47.2024C14.3109 47.1394 14.0177 46.9264 13.8527 46.6227C13.6631 46.2736 13.764 45.6854 13.9658 44.5089L15.8789 33.3545C15.9385 33.0067 15.9683 32.8329 15.9481 32.6664C15.9303 32.5191 15.884 32.3766 15.8118 32.247C15.7302 32.1005 15.6038 31.9774 15.3511 31.7312L7.24311 23.8341C6.38856 23.0017 5.96128 22.5856 5.90929 22.1919C5.86405 21.8493 5.97581 21.5046 6.21345 21.2538C6.48658 20.9655 7.07676 20.8792 8.25714 20.7067L19.4663 19.0683C19.8149 19.0174 19.9892 18.9919 20.141 18.9213C20.2754 18.8588 20.3964 18.7708 20.4973 18.6622C20.6112 18.5396 20.6892 18.3816 20.8451 18.0657L25.8562 7.91372Z" fill="#BBC2C1" stroke="#BBC2C1" stroke-linecap="round" stroke-linejoin="round"/>
</svg>