<svg xmlns="http://www.w3.org/2000/svg" width="60" height="60" viewBox="0 0 60 60" fill="none">
  <rect x="0.5" y="0.5" width="59" height="59" rx="11.5" fill="#FCFCFF" stroke="#83D0A1"/>
  <path d="M21.9118 8C25.771 8 28.8908 11.1313 28.8908 14.979V24.2227C28.8908 26.7994 26.7994 28.8907 24.2227 28.8907H14.979C11.1313 28.8907 8 25.771 8 21.9118C8 14.2395 14.2395 8 21.9118 8Z" fill="#83D0A1"/>
  <path d="M38.0882 8C34.229 8 31.1092 11.1313 31.1092 14.979V24.2227C31.1092 26.7994 33.2006 28.8907 35.7773 28.8907H45.021C48.8687 28.8907 52 25.771 52 21.9118C52 14.2395 45.7605 8 38.0882 8Z" fill="#83D0A1"/>
  <path d="M21.9118 52C25.771 52 28.8908 48.8687 28.8908 45.021V35.7773C28.8908 33.2006 26.7994 31.1093 24.2227 31.1093H14.979C11.1313 31.1093 8 34.229 8 38.0882C8 45.7605 14.2395 52 21.9118 52Z" fill="#E9F6EE"/>
  <path d="M38.0882 52C34.229 52 31.1092 48.8687 31.1092 45.021V35.7773C31.1092 33.2006 33.2006 31.1093 35.7773 31.1093H45.021C48.8687 31.1093 52 34.229 52 38.0882C52 45.7605 45.7605 52 38.0882 52Z" fill="#E9F6EE"/>
</svg>