<svg xmlns="http://www.w3.org/2000/svg" width="68" height="68" viewBox="0 0 68 68" fill="none">
  <path fill-rule="evenodd" clip-rule="evenodd" d="M33.8007 9.73963C33.0281 4.24317 28.3064 0 22.5826 0C10.1284 0 0 10.1284 0 22.5826C0 28.3064 4.24317 33.028 9.73963 33.8007V34.1995C4.24317 34.9721 0 39.6938 0 45.4175C0 57.8717 10.1284 68.0001 22.5826 68.0001C28.2447 68.0001 32.9261 63.848 33.7743 58.4379H34.2261C35.0743 63.848 39.7557 68.0001 45.4178 68.0001C57.872 68.0001 68.0004 57.8717 68.0004 45.4175C68.0004 39.7554 63.8481 35.0739 58.4379 34.2258V33.7743C63.8481 32.9262 68.0004 28.2447 68.0004 22.5826C68.0004 10.1284 57.872 0 45.4178 0C39.694 0 34.9723 4.24317 34.1997 9.73963H33.8007Z" fill="#E9F6EE"/>
  <ellipse cx="21.7131" cy="29.9416" rx="4.11443" ry="4.11443" fill="#B9DBDA"/>
  <ellipse cx="40.228" cy="29.9416" rx="4.11443" ry="4.11443" fill="#B9DBDA"/>
  <path fill-rule="evenodd" clip-rule="evenodd" d="M53.3751 42.7915L46.0897 33.8591L43.9324 45.1687C43.6906 46.3238 43.7069 47.6023 44.033 48.8912C44.9861 52.6574 48.2246 55.0864 51.2664 54.3167C54.3083 53.5469 56.0016 49.8698 55.0486 46.1036C54.7236 44.8196 54.133 43.6909 53.3751 42.7915Z" fill="#B9DBDA"/>
  <path d="M17.5986 21.7126L23.7703 17.5981" stroke="#B9DBDA" stroke-width="1.5" stroke-linecap="round"/>
  <path d="M37.3352 17.2832L42.7256 21.7208" stroke="#B9DBDA" stroke-width="1.5" stroke-linecap="round"/>
</svg>