<svg xmlns="http://www.w3.org/2000/svg" width="55" height="55" viewBox="0 0 55 55" fill="none">
  <path d="M25.856 7.91372C26.3842 6.84365 26.6483 6.30861 27.0068 6.13767C27.3188 5.98894 27.6812 5.98894 27.9931 6.13767C28.3516 6.30861 28.6157 6.84365 29.1439 7.91372L34.1551 18.0657C34.311 18.3816 34.389 18.5396 34.5029 18.6622C34.6038 18.7708 34.7248 18.8588 34.8592 18.9213C35.011 18.9919 35.1853 19.0174 35.5339 19.0683L46.743 20.7067C47.9234 20.8792 48.5136 20.9655 48.7867 21.2538C49.0244 21.5046 49.1361 21.8493 49.0909 22.1919C49.0389 22.5856 48.6116 23.0017 47.757 23.8341L39.6491 31.7312C39.3963 31.9774 39.2699 32.1005 39.1884 32.247C39.1162 32.3766 39.0699 32.5191 39.052 32.6664C39.0318 32.8329 39.0617 33.0067 39.1213 33.3545L41.0344 44.5089C41.2362 45.6854 41.3371 46.2736 41.1475 46.6227C40.9825 46.9264 40.6893 47.1394 40.3494 47.2024C39.9588 47.2748 39.4306 46.997 38.3741 46.4414L28.3533 41.1716C28.0411 41.0074 27.8849 40.9253 27.7205 40.893C27.5749 40.8645 27.4251 40.8645 27.2794 40.893C27.115 40.9253 26.9589 41.0074 26.6466 41.1716L16.6258 46.4414C15.5693 46.997 15.0411 47.2748 14.6505 47.2024C14.3106 47.1394 14.0174 46.9264 13.8524 46.6227C13.6628 46.2736 13.7637 45.6854 13.9655 44.5089L15.8786 33.3545C15.9383 33.0067 15.9681 32.8329 15.9479 32.6664C15.93 32.5191 15.8837 32.3766 15.8115 32.247C15.73 32.1005 15.6036 31.9774 15.3508 31.7312L7.24287 23.8341C6.38831 23.0017 5.96104 22.5856 5.90904 22.1919C5.8638 21.8493 5.97556 21.5046 6.2132 21.2538C6.48633 20.9655 7.07652 20.8792 8.25689 20.7067L19.466 19.0683C19.8146 19.0174 19.9889 18.9919 20.1407 18.9213C20.2751 18.8588 20.3961 18.7708 20.497 18.6622C20.611 18.5396 20.6889 18.3816 20.8449 18.0657L25.856 7.91372Z" fill="#FEE500" stroke="#FEE500" stroke-linecap="round" stroke-linejoin="round"/>
</svg>