<svg xmlns="http://www.w3.org/2000/svg" width="13" height="12" viewBox="0 0 13 12" fill="none">
  <path d="M6.49999 11H12M1 11H2.02333C2.32228 11 2.47175 11 2.61241 10.9677C2.73712 10.9391 2.85635 10.8919 2.9657 10.8279C3.08904 10.7556 3.19474 10.6546 3.40612 10.4526L11.0834 3.11509C11.5896 2.63124 11.5896 1.84675 11.0834 1.36289C10.5771 0.879036 9.75629 0.879036 9.25003 1.36289L1.57277 8.70037C1.36138 8.9024 1.25569 9.00342 1.18011 9.1213C1.11309 9.22582 1.06371 9.33976 1.03377 9.45896C1 9.59339 1 9.73625 1 10.022V11Z" stroke="white" stroke-linecap="round" stroke-linejoin="round"/>
</svg>