<svg xmlns="http://www.w3.org/2000/svg" width="13" height="14" viewBox="0 0 13 14" fill="none">
  <path d="M4.81007 11.4227L5.16074 12.2113C5.26498 12.4461 5.43511 12.6456 5.65047 12.7856C5.86584 12.9256 6.1172 13 6.37407 13C6.63094 13 6.8823 12.9256 7.09767 12.7856C7.31304 12.6456 7.48316 12.4461 7.58741 12.2113L7.93807 11.4227C8.0629 11.1428 8.27288 10.9095 8.53807 10.756C8.80494 10.6021 9.11367 10.5365 9.42007 10.5687L10.2781 10.66C10.5335 10.687 10.7912 10.6394 11.0201 10.5228C11.2489 10.4062 11.4391 10.2258 11.5674 10.0033C11.6959 9.78101 11.7571 9.52617 11.7436 9.26973C11.7302 9.01329 11.6425 8.76628 11.4914 8.55867L10.9834 7.86067C10.8025 7.61028 10.7059 7.30889 10.7074 7C10.7073 6.69195 10.8049 6.39181 10.9861 6.14267L11.4941 5.44467C11.6452 5.23705 11.7328 4.99004 11.7463 4.7336C11.7598 4.47717 11.6986 4.22232 11.5701 4C11.4417 3.77754 11.2516 3.59709 11.0227 3.48054C10.7939 3.36398 10.5361 3.31632 10.2807 3.34333L9.42274 3.43467C9.11634 3.46685 8.80761 3.40127 8.54074 3.24733C8.27501 3.09295 8.06498 2.85841 7.94074 2.57733L7.58741 1.78867C7.48316 1.5539 7.31304 1.35443 7.09767 1.21444C6.8823 1.07445 6.63094 0.999958 6.37407 1C6.1172 0.999958 5.86584 1.07445 5.65047 1.21444C5.43511 1.35443 5.26498 1.5539 5.16074 1.78867L4.81007 2.57733C4.68583 2.85841 4.4758 3.09295 4.21007 3.24733C3.9432 3.40127 3.63447 3.46685 3.32807 3.43467L2.46741 3.34333C2.212 3.31632 1.95425 3.36398 1.72539 3.48054C1.49654 3.59709 1.30641 3.77754 1.17807 4C1.04956 4.22232 0.988342 4.47717 1.00183 4.7336C1.01532 4.99004 1.10295 5.23705 1.25407 5.44467L1.76207 6.14267C1.94324 6.39181 2.04079 6.69195 2.04074 7C2.04079 7.30805 1.94324 7.60819 1.76207 7.85733L1.25407 8.55533C1.10295 8.76295 1.01532 9.00996 1.00183 9.2664C0.988342 9.52283 1.04956 9.77768 1.17807 10C1.30654 10.2223 1.49669 10.4027 1.72551 10.5192C1.95433 10.6358 2.21202 10.6835 2.46741 10.6567L3.32541 10.5653C3.63181 10.5332 3.94053 10.5987 4.20741 10.7527C4.47412 10.9066 4.68513 11.1412 4.81007 11.4227Z" stroke="#4CA771" stroke-linecap="round" stroke-linejoin="round"/>
  <path d="M6.373 8.8C7.36711 8.8 8.173 7.99411 8.173 7C8.173 6.00589 7.36711 5.2 6.373 5.2C5.37889 5.2 4.573 6.00589 4.573 7C4.573 7.99411 5.37889 8.8 6.373 8.8Z" stroke="#4CA771" stroke-linecap="round" stroke-linejoin="round"/>
</svg>