<svg width="98" height="18" viewBox="0 0 98 18" fill="none" xmlns="http://www.w3.org/2000/svg">
<path d="M8.46199 2.58999C8.63485 2.23978 8.72128 2.06468 8.83862 2.00874C8.94071 1.96006 9.05932 1.96006 9.1614 2.00874C9.27874 2.06468 9.36517 2.23978 9.53804 2.58999L11.178 5.91246C11.2291 6.01585 11.2546 6.06754 11.2919 6.10768C11.3249 6.14322 11.3645 6.17201 11.4085 6.19247C11.4582 6.21557 11.5152 6.22391 11.6293 6.24058L15.2977 6.77678C15.684 6.83324 15.8772 6.86148 15.9666 6.95583C16.0444 7.03792 16.0809 7.15072 16.0661 7.26283C16.0491 7.39168 15.9093 7.52788 15.6296 7.80029L12.9761 10.3848C12.8934 10.4654 12.852 10.5057 12.8253 10.5536C12.8017 10.596 12.7865 10.6427 12.7807 10.6909C12.7741 10.7453 12.7838 10.8022 12.8034 10.9161L13.4295 14.5666C13.4955 14.9516 13.5285 15.1441 13.4665 15.2584C13.4125 15.3578 13.3165 15.4275 13.2053 15.4481C13.0775 15.4718 12.9046 15.3809 12.5588 15.1991L9.27928 13.4744C9.1771 13.4206 9.12601 13.3938 9.07218 13.3832C9.02452 13.3739 8.9755 13.3739 8.92784 13.3832C8.87402 13.3938 8.82293 13.4206 8.72074 13.4744L5.44119 15.1991C5.09544 15.3809 4.92256 15.4718 4.79473 15.4481C4.68351 15.4275 4.58754 15.3578 4.53355 15.2584C4.4715 15.1441 4.50452 14.9516 4.57056 14.5666L5.19666 10.9161C5.21618 10.8022 5.22594 10.7453 5.21934 10.6909C5.21349 10.6427 5.19833 10.596 5.1747 10.5536C5.14802 10.5057 5.10666 10.4654 5.02394 10.3848L2.37042 7.80029C2.09075 7.52788 1.95091 7.39168 1.93389 7.26283C1.91909 7.15072 1.95567 7.03792 2.03344 6.95583C2.12283 6.86148 2.31598 6.83324 2.70228 6.77678L6.37073 6.24058C6.48482 6.22391 6.54186 6.21557 6.59154 6.19247C6.63552 6.17201 6.67512 6.14322 6.70814 6.10768C6.74543 6.06754 6.77095 6.01585 6.82198 5.91246L8.46199 2.58999Z" fill="white" stroke="white" stroke-linecap="round" stroke-linejoin="round"/>
<path d="M28.462 2.58999C28.6349 2.23978 28.7213 2.06468 28.8386 2.00874C28.9407 1.96006 29.0593 1.96006 29.1614 2.00874C29.2787 2.06468 29.3652 2.23978 29.538 2.58999L31.178 5.91246C31.2291 6.01585 31.2546 6.06754 31.2919 6.10768C31.3249 6.14322 31.3645 6.17201 31.4085 6.19247C31.4582 6.21557 31.5152 6.22391 31.6293 6.24058L35.2977 6.77678C35.684 6.83324 35.8772 6.86148 35.9666 6.95583C36.0444 7.03792 36.0809 7.15072 36.0661 7.26283C36.0491 7.39168 35.9093 7.52788 35.6296 7.80029L32.9761 10.3848C32.8934 10.4654 32.852 10.5057 32.8253 10.5536C32.8017 10.596 32.7865 10.6427 32.7807 10.6909C32.7741 10.7453 32.7838 10.8022 32.8034 10.9161L33.4295 14.5666C33.4955 14.9516 33.5285 15.1441 33.4665 15.2584C33.4125 15.3578 33.3165 15.4275 33.2053 15.4481C33.0775 15.4718 32.9046 15.3809 32.5588 15.1991L29.2793 13.4744C29.1771 13.4206 29.126 13.3938 29.0722 13.3832C29.0245 13.3739 28.9755 13.3739 28.9278 13.3832C28.874 13.3938 28.8229 13.4206 28.7207 13.4744L25.4412 15.1991C25.0954 15.3809 24.9226 15.4718 24.7947 15.4481C24.6835 15.4275 24.5875 15.3578 24.5336 15.2584C24.4715 15.1441 24.5045 14.9516 24.5706 14.5666L25.1967 10.9161C25.2162 10.8022 25.2259 10.7453 25.2193 10.6909C25.2135 10.6427 25.1983 10.596 25.1747 10.5536C25.148 10.5057 25.1067 10.4654 25.0239 10.3848L22.3704 7.80029C22.0907 7.52788 21.9509 7.39168 21.9339 7.26283C21.9191 7.15072 21.9557 7.03792 22.0334 6.95583C22.1228 6.86148 22.316 6.83324 22.7023 6.77678L26.3707 6.24058C26.4848 6.22391 26.5419 6.21557 26.5915 6.19247C26.6355 6.17201 26.6751 6.14322 26.7081 6.10768C26.7454 6.06754 26.7709 6.01585 26.822 5.91246L28.462 2.58999Z" fill="white" stroke="white" stroke-linecap="round" stroke-linejoin="round"/>
<path d="M48.462 2.58999C48.6349 2.23978 48.7213 2.06468 48.8386 2.00874C48.9407 1.96006 49.0593 1.96006 49.1614 2.00874C49.2787 2.06468 49.3652 2.23978 49.538 2.58999L51.178 5.91246C51.2291 6.01585 51.2546 6.06754 51.2919 6.10768C51.3249 6.14322 51.3645 6.17201 51.4085 6.19247C51.4582 6.21557 51.5152 6.22391 51.6293 6.24058L55.2977 6.77678C55.684 6.83324 55.8772 6.86148 55.9666 6.95583C56.0444 7.03792 56.0809 7.15072 56.0661 7.26283C56.0491 7.39168 55.9093 7.52788 55.6296 7.80029L52.9761 10.3848C52.8934 10.4654 52.852 10.5057 52.8253 10.5536C52.8017 10.596 52.7865 10.6427 52.7807 10.6909C52.7741 10.7453 52.7838 10.8022 52.8034 10.9161L53.4295 14.5666C53.4955 14.9516 53.5285 15.1441 53.4665 15.2584C53.4125 15.3578 53.3165 15.4275 53.2053 15.4481C53.0775 15.4718 52.9046 15.3809 52.5588 15.1991L49.2793 13.4744C49.1771 13.4206 49.126 13.3938 49.0722 13.3832C49.0245 13.3739 48.9755 13.3739 48.9278 13.3832C48.874 13.3938 48.8229 13.4206 48.7207 13.4744L45.4412 15.1991C45.0954 15.3809 44.9226 15.4718 44.7947 15.4481C44.6835 15.4275 44.5875 15.3578 44.5336 15.2584C44.4715 15.1441 44.5045 14.9516 44.5706 14.5666L45.1967 10.9161C45.2162 10.8022 45.2259 10.7453 45.2193 10.6909C45.2135 10.6427 45.1983 10.596 45.1747 10.5536C45.148 10.5057 45.1067 10.4654 45.0239 10.3848L42.3704 7.80029C42.0907 7.52788 41.9509 7.39168 41.9339 7.26283C41.9191 7.15072 41.9557 7.03792 42.0334 6.95583C42.1228 6.86148 42.316 6.83324 42.7023 6.77678L46.3707 6.24058C46.4848 6.22391 46.5419 6.21557 46.5915 6.19247C46.6355 6.17201 46.6751 6.14322 46.7081 6.10768C46.7454 6.06754 46.7709 6.01585 46.822 5.91246L48.462 2.58999Z" fill="white" stroke="white" stroke-linecap="round" stroke-linejoin="round"/>
<path d="M68.462 2.58999C68.6349 2.23978 68.7213 2.06468 68.8386 2.00874C68.9407 1.96006 69.0593 1.96006 69.1614 2.00874C69.2787 2.06468 69.3652 2.23978 69.538 2.58999L71.178 5.91246C71.2291 6.01585 71.2546 6.06754 71.2919 6.10768C71.3249 6.14322 71.3645 6.17201 71.4085 6.19247C71.4582 6.21557 71.5152 6.22391 71.6293 6.24058L75.2977 6.77678C75.684 6.83324 75.8772 6.86148 75.9666 6.95583C76.0444 7.03792 76.0809 7.15072 76.0661 7.26283C76.0491 7.39168 75.9093 7.52788 75.6296 7.80029L72.9761 10.3848C72.8934 10.4654 72.852 10.5057 72.8253 10.5536C72.8017 10.596 72.7865 10.6427 72.7807 10.6909C72.7741 10.7453 72.7838 10.8022 72.8034 10.9161L73.4295 14.5666C73.4955 14.9516 73.5285 15.1441 73.4665 15.2584C73.4125 15.3578 73.3165 15.4275 73.2053 15.4481C73.0775 15.4718 72.9046 15.3809 72.5588 15.1991L69.2793 13.4744C69.1771 13.4206 69.126 13.3938 69.0722 13.3832C69.0245 13.3739 68.9755 13.3739 68.9278 13.3832C68.874 13.3938 68.8229 13.4206 68.7207 13.4744L65.4412 15.1991C65.0954 15.3809 64.9226 15.4718 64.7947 15.4481C64.6835 15.4275 64.5875 15.3578 64.5336 15.2584C64.4715 15.1441 64.5045 14.9516 64.5706 14.5666L65.1967 10.9161C65.2162 10.8022 65.2259 10.7453 65.2193 10.6909C65.2135 10.6427 65.1983 10.596 65.1747 10.5536C65.148 10.5057 65.1067 10.4654 65.0239 10.3848L62.3704 7.80029C62.0907 7.52788 61.9509 7.39168 61.9339 7.26283C61.9191 7.15072 61.9557 7.03792 62.0334 6.95583C62.1228 6.86148 62.316 6.83324 62.7023 6.77678L66.3707 6.24058C66.4848 6.22391 66.5419 6.21557 66.5915 6.19247C66.6355 6.17201 66.6751 6.14322 66.7081 6.10768C66.7454 6.06754 66.7709 6.01585 66.822 5.91246L68.462 2.58999Z" fill="white" stroke="white" stroke-linecap="round" stroke-linejoin="round"/>
<path d="M88.462 2.58999C88.6349 2.23978 88.7213 2.06468 88.8386 2.00874C88.9407 1.96006 89.0593 1.96006 89.1614 2.00874C89.2787 2.06468 89.3652 2.23978 89.538 2.58999L91.178 5.91246C91.2291 6.01585 91.2546 6.06754 91.2919 6.10768C91.3249 6.14322 91.3645 6.17201 91.4085 6.19247C91.4582 6.21557 91.5152 6.22391 91.6293 6.24058L95.2977 6.77678C95.684 6.83324 95.8772 6.86148 95.9666 6.95583C96.0444 7.03792 96.0809 7.15072 96.0661 7.26283C96.0491 7.39168 95.9093 7.52788 95.6296 7.80029L92.9761 10.3848C92.8934 10.4654 92.852 10.5057 92.8253 10.5536C92.8017 10.596 92.7865 10.6427 92.7807 10.6909C92.7741 10.7453 92.7838 10.8022 92.8034 10.9161L93.4295 14.5666C93.4955 14.9516 93.5285 15.1441 93.4665 15.2584C93.4125 15.3578 93.3165 15.4275 93.2053 15.4481C93.0775 15.4718 92.9046 15.3809 92.5588 15.1991L89.2793 13.4744C89.1771 13.4206 89.126 13.3938 89.0722 13.3832C89.0245 13.3739 88.9755 13.3739 88.9278 13.3832C88.874 13.3938 88.8229 13.4206 88.7207 13.4744L85.4412 15.1991C85.0954 15.3809 84.9226 15.4718 84.7947 15.4481C84.6835 15.4275 84.5875 15.3578 84.5336 15.2584C84.4715 15.1441 84.5045 14.9516 84.5706 14.5666L85.1967 10.9161C85.2162 10.8022 85.2259 10.7453 85.2193 10.6909C85.2135 10.6427 85.1983 10.596 85.1747 10.5536C85.148 10.5057 85.1067 10.4654 85.0239 10.3848L82.3704 7.80029C82.0907 7.52788 81.9509 7.39168 81.9339 7.26283C81.9191 7.15072 81.9557 7.03792 82.0334 6.95583C82.1228 6.86148 82.316 6.83324 82.7023 6.77678L86.3707 6.24058C86.4848 6.22391 86.5419 6.21557 86.5915 6.19247C86.6355 6.17201 86.6751 6.14322 86.7081 6.10768C86.7454 6.06754 86.7709 6.01585 86.822 5.91246L88.462 2.58999Z" fill="white" stroke="white" stroke-linecap="round" stroke-linejoin="round"/>
</svg>
